<svg width="18" height="16" viewBox="0 0 18 16" fill="none" xmlns="http://www.w3.org/2000/svg">
<path d="M9.00001 1.82917C8.09201 0.994258 6.90352 0.530877 5.67001 0.530838C5.01713 0.531518 4.37082 0.661304 3.76829 0.912728C3.16576 1.16415 2.6189 1.53225 2.15918 1.99584C0.198343 3.965 0.199176 7.04501 2.16084 9.00584L8.27084 15.1158C8.41251 15.365 8.68584 15.5258 9.00001 15.5258C9.12901 15.5246 9.25592 15.4931 9.37054 15.4339C9.48516 15.3747 9.58431 15.2895 9.66001 15.185L15.8392 9.00584C17.8008 7.04417 17.8008 3.965 15.8375 1.9925C15.378 1.52977 14.8316 1.16242 14.2297 0.911574C13.6277 0.660729 12.9821 0.531338 12.33 0.530838C11.0965 0.53104 9.9081 0.994399 9.00001 1.82917ZM14.6592 3.17084C15.9617 4.48 15.9625 6.52501 14.6608 7.82751L9.00001 13.4883L3.33918 7.82751C2.03751 6.52501 2.03834 4.48001 3.33751 3.17417C3.97084 2.54417 4.79918 2.1975 5.67001 2.1975C6.54084 2.1975 7.36584 2.54417 7.99418 3.1725L8.41084 3.58917C8.48817 3.66663 8.58 3.72807 8.6811 3.77C8.78219 3.81193 8.89056 3.83351 9.00001 3.83351C9.10945 3.83351 9.21782 3.81193 9.31892 3.77C9.42002 3.72807 9.51185 3.66663 9.58918 3.58917L10.0058 3.1725C11.2658 1.915 13.4008 1.91834 14.6592 3.17084Z" fill="#DC3845"/>
</svg>
