<svg width="20" height="20" viewBox="0 0 20 20" fill="none" xmlns="http://www.w3.org/2000/svg">
<path d="M17.285 10.8708C16.7203 11.0208 16.1385 11.0967 15.5542 11.0967C13.775 11.0967 12.1042 10.405 10.8492 9.15C10.025 8.32112 9.43255 7.29072 9.13076 6.1615C8.82897 5.03227 8.82842 3.84367 9.12916 2.71417C9.16672 2.57294 9.16648 2.42433 9.12847 2.28323C9.09046 2.14212 9.01601 2.0135 8.91259 1.91025C8.80918 1.80701 8.68043 1.73277 8.53927 1.69499C8.39811 1.65721 8.24949 1.65721 8.10833 1.695C6.69429 2.07182 5.40421 2.81386 4.36749 3.84667C1.11916 7.095 1.11916 12.3825 4.36749 15.6325C5.1396 16.4089 6.05802 17.0245 7.06961 17.4436C8.0812 17.8627 9.16586 18.077 10.2608 18.0742C11.3555 18.0772 12.4399 17.8631 13.4512 17.4441C14.4626 17.0251 15.3807 16.4097 16.1525 15.6333C17.1861 14.5964 17.9285 13.3057 18.305 11.8908C18.3424 11.7497 18.3421 11.6012 18.3041 11.4602C18.2661 11.3192 18.1918 11.1906 18.0885 11.0873C17.9852 10.9841 17.8567 10.9097 17.7157 10.8717C17.5747 10.8337 17.4262 10.8334 17.285 10.8708ZM14.975 14.455C14.3575 15.0759 13.6229 15.5682 12.8139 15.9033C12.0048 16.2385 11.1374 16.4098 10.2617 16.4075C9.38565 16.4097 8.51791 16.2382 7.7086 15.9029C6.89929 15.5676 6.16448 15.0752 5.54666 14.4542C2.94833 11.855 2.94833 7.625 5.54666 5.02583C6.04875 4.52431 6.62841 4.10701 7.26333 3.79C7.17039 4.98922 7.33745 6.19436 7.7531 7.32307C8.16874 8.45179 8.82317 9.47746 9.67166 10.33C10.5223 11.1811 11.5477 11.8374 12.6769 12.2534C13.8061 12.6693 15.0121 12.8351 16.2117 12.7392C15.8929 13.373 15.4755 13.9522 14.975 14.455Z" fill="#282525"/>
</svg>
